{
	"asset":{
		"generator":"Khronos glTF Blender I/O v4.0.44",
		"version":"2.0"
	},
	"extensionsUsed":[
		"KHR_materials_specular",
		"KHR_materials_ior"
	],
	"scene":0,
	"scenes":[
		{
			"name":"Scene",
			"nodes":[
				0
			]
		}
	],
	"nodes":[
		{
			"mesh":0,
			"name":"3D room",
			"rotation":[
				0.7071068286895752,
				0,
				0,
				0.7071068286895752
			]
		}
	],
	"materials":[
		{
			"doubleSided":true,
			"extensions":{
				"KHR_materials_specular":{
					"specularFactor":0.6600000262260437
				},
				"KHR_materials_ior":{
					"ior":1.4500000476837158
				}
			},
			"name":"FrontColor.001",
			"pbrMetallicRoughness":{
				"metallicFactor":0
			}
		},
		{
			"alphaMode":"BLEND",
			"doubleSided":true,
			"extensions":{
				"KHR_materials_specular":{
					"specularFactor":0.6600000262260437
				},
				"KHR_materials_ior":{
					"ior":1.4500000476837158
				}
			},
			"name":"Translucent_Glass_Blue.001",
			"pbrMetallicRoughness":{
				"baseColorFactor":[
					0.3921569883823395,
					0.5843139886856079,
					0.9294120073318481,
					0.5
				],
				"metallicFactor":0
			}
		},
		{
			"doubleSided":true,
			"extensions":{
				"KHR_materials_specular":{
					"specularFactor":0.6600000262260437
				},
				"KHR_materials_ior":{
					"ior":1.4500000476837158
				}
			},
			"name":"Formica_Laminate_Dark.001",
			"pbrMetallicRoughness":{
				"baseColorFactor":[
					0.19607800245285034,
					0.20784300565719604,
					0.23529399931430817,
					1
				],
				"metallicFactor":0
			}
		},
		{
			"doubleSided":true,
			"extensions":{
				"KHR_materials_specular":{
					"specularFactor":0.6600000262260437
				},
				"KHR_materials_ior":{
					"ior":1.4500000476837158
				}
			},
			"name":"Formica_Laminate_Light.001",
			"pbrMetallicRoughness":{
				"baseColorFactor":[
					0.8352940082550049,
					0.7411760091781616,
					0.6431369781494141,
					1
				],
				"metallicFactor":0
			}
		},
		{
			"doubleSided":true,
			"extensions":{
				"KHR_materials_specular":{
					"specularFactor":0.6600000262260437
				},
				"KHR_materials_ior":{
					"ior":1.4500000476837158
				}
			},
			"name":"Color_000.001",
			"pbrMetallicRoughness":{
				"metallicFactor":0
			}
		},
		{
			"doubleSided":true,
			"extensions":{
				"KHR_materials_specular":{
					"specularFactor":0.6600000262260437
				},
				"KHR_materials_ior":{
					"ior":1.4500000476837158
				}
			},
			"name":"all_metal.001",
			"pbrMetallicRoughness":{
				"baseColorFactor":[
					0.5843139886856079,
					0.5843139886856079,
					0.5843139886856079,
					1
				],
				"metallicFactor":0
			}
		},
		{
			"doubleSided":true,
			"extensions":{
				"KHR_materials_specular":{
					"specularFactor":0.6600000262260437
				},
				"KHR_materials_ior":{
					"ior":1.4500000476837158
				}
			},
			"name":"Color_009.001",
			"pbrMetallicRoughness":{
				"baseColorFactor":[
					0,
					0,
					0,
					1
				],
				"metallicFactor":0
			}
		},
		{
			"alphaMode":"BLEND",
			"doubleSided":true,
			"extensions":{
				"KHR_materials_specular":{
					"specularFactor":0.6600000262260437
				},
				"KHR_materials_ior":{
					"ior":1.4500000476837158
				}
			},
			"name":"Translucent_Glass_Gray.001",
			"pbrMetallicRoughness":{
				"baseColorFactor":[
					0.6980389952659607,
					0.6980389952659607,
					0.6980389952659607,
					0.5
				],
				"metallicFactor":0
			}
		},
		{
			"doubleSided":true,
			"extensions":{
				"KHR_materials_specular":{
					"specularFactor":0.6600000262260437
				},
				"KHR_materials_ior":{
					"ior":1.4500000476837158
				}
			},
			"name":"Color_1.001",
			"pbrMetallicRoughness":{
				"baseColorFactor":[
					0.11764699965715408,
					0.11764699965715408,
					0.11764699965715408,
					1
				],
				"metallicFactor":0
			}
		},
		{
			"doubleSided":true,
			"extensions":{
				"KHR_materials_specular":{
					"specularFactor":0.6600000262260437
				},
				"KHR_materials_ior":{
					"ior":1.4500000476837158
				}
			},
			"name":"Aluminum.001",
			"pbrMetallicRoughness":{
				"baseColorFactor":[
					0.7019609808921814,
					0.7019609808921814,
					0.7019609808921814,
					1
				],
				"metallicFactor":0
			}
		},
		{
			"doubleSided":true,
			"extensions":{
				"KHR_materials_specular":{
					"specularFactor":0.6600000262260437
				},
				"KHR_materials_ior":{
					"ior":1.4500000476837158
				}
			},
			"name":"TV.001",
			"pbrMetallicRoughness":{
				"baseColorFactor":[
					0.11764699965715408,
					0.11764699965715408,
					0.11764699965715408,
					1
				],
				"metallicFactor":0
			}
		},
		{
			"doubleSided":true,
			"extensions":{
				"KHR_materials_specular":{
					"specularFactor":0.6600000262260437
				},
				"KHR_materials_ior":{
					"ior":1.4500000476837158
				}
			},
			"name":"casters.001",
			"pbrMetallicRoughness":{
				"baseColorFactor":[
					0.21960799396038055,
					0.21960799396038055,
					0.21960799396038055,
					1
				],
				"metallicFactor":0
			}
		},
		{
			"doubleSided":true,
			"extensions":{
				"KHR_materials_specular":{
					"specularFactor":0.6600000262260437
				},
				"KHR_materials_ior":{
					"ior":1.4500000476837158
				}
			},
			"name":"CP_B.001",
			"pbrMetallicRoughness":{
				"baseColorFactor":[
					0.24705900251865387,
					0.24705900251865387,
					0.24705900251865387,
					1
				],
				"metallicFactor":0
			}
		},
		{
			"doubleSided":true,
			"extensions":{
				"KHR_materials_specular":{
					"specularFactor":0.6600000262260437
				},
				"KHR_materials_ior":{
					"ior":1.4500000476837158
				}
			},
			"name":"_2.001",
			"pbrMetallicRoughness":{
				"baseColorFactor":[
					0,
					0,
					0,
					1
				],
				"metallicFactor":0
			}
		},
		{
			"doubleSided":true,
			"extensions":{
				"KHR_materials_specular":{
					"specularFactor":0.6600000262260437
				},
				"KHR_materials_ior":{
					"ior":1.4500000476837158
				}
			},
			"name":"_6.001",
			"pbrMetallicRoughness":{
				"baseColorTexture":{
					"index":0
				},
				"metallicFactor":0
			}
		},
		{
			"alphaMode":"BLEND",
			"doubleSided":true,
			"extensions":{
				"KHR_materials_specular":{
					"specularFactor":0.6600000262260437
				},
				"KHR_materials_ior":{
					"ior":1.4500000476837158
				}
			},
			"name":"_1.001",
			"pbrMetallicRoughness":{
				"baseColorFactor":[
					1,
					1,
					1,
					0.3100000023841858
				],
				"baseColorTexture":{
					"index":1
				},
				"metallicFactor":0
			}
		}
	],
	"meshes":[
		{
			"name":"3D room.001",
			"primitives":[
				{
					"attributes":{
						"POSITION":0,
						"NORMAL":1,
						"TEXCOORD_0":2
					},
					"indices":3,
					"material":0
				},
				{
					"attributes":{
						"POSITION":4,
						"NORMAL":5,
						"TEXCOORD_0":6
					},
					"indices":7,
					"material":1
				},
				{
					"attributes":{
						"POSITION":8,
						"NORMAL":9,
						"TEXCOORD_0":10
					},
					"indices":11,
					"material":2
				},
				{
					"attributes":{
						"POSITION":12,
						"NORMAL":13,
						"TEXCOORD_0":14
					},
					"indices":15,
					"material":3
				},
				{
					"attributes":{
						"POSITION":16,
						"NORMAL":17,
						"TEXCOORD_0":18
					},
					"indices":19,
					"material":4
				},
				{
					"attributes":{
						"POSITION":20,
						"NORMAL":21,
						"TEXCOORD_0":22
					},
					"indices":23,
					"material":5
				},
				{
					"attributes":{
						"POSITION":24,
						"NORMAL":25,
						"TEXCOORD_0":26
					},
					"indices":27,
					"material":6
				},
				{
					"attributes":{
						"POSITION":28,
						"NORMAL":29,
						"TEXCOORD_0":30
					},
					"indices":31,
					"material":7
				},
				{
					"attributes":{
						"POSITION":32,
						"NORMAL":33,
						"TEXCOORD_0":34
					},
					"indices":35,
					"material":8
				},
				{
					"attributes":{
						"POSITION":36,
						"NORMAL":37,
						"TEXCOORD_0":38
					},
					"indices":39,
					"material":9
				},
				{
					"attributes":{
						"POSITION":40,
						"NORMAL":41,
						"TEXCOORD_0":42
					},
					"indices":43,
					"material":10
				},
				{
					"attributes":{
						"POSITION":44,
						"NORMAL":45,
						"TEXCOORD_0":46
					},
					"indices":47,
					"material":11
				},
				{
					"attributes":{
						"POSITION":48,
						"NORMAL":49,
						"TEXCOORD_0":50
					},
					"indices":51,
					"material":12
				},
				{
					"attributes":{
						"POSITION":52,
						"NORMAL":53,
						"TEXCOORD_0":54
					},
					"indices":55,
					"material":13
				},
				{
					"attributes":{
						"POSITION":56,
						"NORMAL":57,
						"TEXCOORD_0":58
					},
					"indices":59,
					"material":14
				},
				{
					"attributes":{
						"POSITION":60,
						"NORMAL":61,
						"TEXCOORD_0":62
					},
					"indices":63,
					"material":15
				}
			]
		}
	],
	"textures":[
		{
			"sampler":0,
			"source":0
		},
		{
			"sampler":0,
			"source":1
		}
	],
	"images":[
		{
			"mimeType":"image/jpeg",
			"name":"_6.jpg.001",
			"uri":"../3D%20room/_6.jpg"
		},
		{
			"mimeType":"image/jpeg",
			"name":"_1.jpg.001",
			"uri":"../3D%20room/_1.jpg"
		}
	],
	"accessors":[
		{
			"bufferView":0,
			"componentType":5126,
			"count":312,
			"max":[
				8.670000076293945,
				0,
				0
			],
			"min":[
				0,
				-8.180000305175781,
				-3.299999952316284
			],
			"type":"VEC3"
		},
		{
			"bufferView":1,
			"componentType":5126,
			"count":312,
			"type":"VEC3"
		},
		{
			"bufferView":2,
			"componentType":5126,
			"count":312,
			"type":"VEC2"
		},
		{
			"bufferView":3,
			"componentType":5123,
			"count":468,
			"type":"SCALAR"
		},
		{
			"bufferView":4,
			"componentType":5126,
			"count":144,
			"max":[
				8.369999885559082,
				0.05000000074505806,
				-0.30000001192092896
			],
			"min":[
				0,
				-7.929999828338623,
				-3.299999952316284
			],
			"type":"VEC3"
		},
		{
			"bufferView":5,
			"componentType":5126,
			"count":144,
			"type":"VEC3"
		},
		{
			"bufferView":6,
			"componentType":5126,
			"count":144,
			"type":"VEC2"
		},
		{
			"bufferView":7,
			"componentType":5123,
			"count":216,
			"type":"SCALAR"
		},
		{
			"bufferView":8,
			"componentType":5126,
			"count":96,
			"max":[
				7.119999885559082,
				-0.8999999761581421,
				-0.30000001192092896
			],
			"min":[
				4.920000076293945,
				-2,
				-2.299999952316284
			],
			"type":"VEC3"
		},
		{
			"bufferView":9,
			"componentType":5126,
			"count":96,
			"type":"VEC3"
		},
		{
			"bufferView":10,
			"componentType":5126,
			"count":96,
			"type":"VEC2"
		},
		{
			"bufferView":11,
			"componentType":5123,
			"count":144,
			"type":"SCALAR"
		},
		{
			"bufferView":12,
			"componentType":5126,
			"count":144,
			"max":[
				4.076340198516846,
				-1.9090399742126465,
				-0.30000001192092896
			],
			"min":[
				0.05000000074505806,
				-4.698840141296387,
				-0.949999988079071
			],
			"type":"VEC3"
		},
		{
			"bufferView":13,
			"componentType":5126,
			"count":144,
			"type":"VEC3"
		},
		{
			"bufferView":14,
			"componentType":5126,
			"count":144,
			"type":"VEC2"
		},
		{
			"bufferView":15,
			"componentType":5123,
			"count":252,
			"type":"SCALAR"
		},
		{
			"bufferView":16,
			"componentType":5126,
			"count":14616,
			"max":[
				3.500070095062256,
				-2.1899499893188477,
				-1.0314099788665771
			],
			"min":[
				0.700531005859375,
				-4.224090099334717,
				-1.2201299667358398
			],
			"type":"VEC3"
		},
		{
			"bufferView":17,
			"componentType":5126,
			"count":14616,
			"type":"VEC3"
		},
		{
			"bufferView":18,
			"componentType":5126,
			"count":14616,
			"type":"VEC2"
		},
		{
			"bufferView":19,
			"componentType":5123,
			"count":30186,
			"type":"SCALAR"
		},
		{
			"bufferView":20,
			"componentType":5126,
			"count":37376,
			"max":[
				3.681960105895996,
				-2.15093994140625,
				-0.949999988079071
			],
			"min":[
				0.5087029933929443,
				-4.272669792175293,
				-1.3239500522613525
			],
			"type":"VEC3"
		},
		{
			"bufferView":21,
			"componentType":5126,
			"count":37376,
			"type":"VEC3"
		},
		{
			"bufferView":22,
			"componentType":5126,
			"count":37376,
			"type":"VEC2"
		},
		{
			"bufferView":23,
			"componentType":5123,
			"count":69660,
			"type":"SCALAR"
		},
		{
			"bufferView":24,
			"componentType":5126,
			"count":5619,
			"max":[
				3.680069923400879,
				-2.181999921798706,
				-1.0263299942016602
			],
			"min":[
				0.5087029933929443,
				-4.272669792175293,
				-1.3239500522613525
			],
			"type":"VEC3"
		},
		{
			"bufferView":25,
			"componentType":5126,
			"count":5619,
			"type":"VEC3"
		},
		{
			"bufferView":26,
			"componentType":5126,
			"count":5619,
			"type":"VEC2"
		},
		{
			"bufferView":27,
			"componentType":5123,
			"count":9801,
			"type":"SCALAR"
		},
		{
			"bufferView":28,
			"componentType":5126,
			"count":162,
			"max":[
				3.6791300773620605,
				-2.181999921798706,
				-1.0125199556350708
			],
			"min":[
				0.5092840194702148,
				-4.2677998542785645,
				-1.0266200304031372
			],
			"type":"VEC3"
		},
		{
			"bufferView":29,
			"componentType":5126,
			"count":162,
			"type":"VEC3"
		},
		{
			"bufferView":30,
			"componentType":5126,
			"count":162,
			"type":"VEC2"
		},
		{
			"bufferView":31,
			"componentType":5123,
			"count":324,
			"type":"SCALAR"
		},
		{
			"bufferView":32,
			"componentType":5126,
			"count":27,
			"max":[
				3.6791300773620605,
				-2.290519952774048,
				-1.0263299942016602
			],
			"min":[
				0.9367629885673523,
				-4.265359878540039,
				-1.0266200304031372
			],
			"type":"VEC3"
		},
		{
			"bufferView":33,
			"componentType":5126,
			"count":27,
			"type":"VEC3"
		},
		{
			"bufferView":34,
			"componentType":5126,
			"count":27,
			"type":"VEC2"
		},
		{
			"bufferView":35,
			"componentType":5123,
			"count":27,
			"type":"SCALAR"
		},
		{
			"bufferView":36,
			"componentType":5126,
			"count":1152,
			"max":[
				4.081920146942139,
				-0.5385739803314209,
				-0.30000001192092896
			],
			"min":[
				0.5260350108146667,
				-1.4733500480651855,
				-2.799999952316284
			],
			"type":"VEC3"
		},
		{
			"bufferView":37,
			"componentType":5126,
			"count":1152,
			"type":"VEC3"
		},
		{
			"bufferView":38,
			"componentType":5126,
			"count":1152,
			"type":"VEC2"
		},
		{
			"bufferView":39,
			"componentType":5123,
			"count":2208,
			"type":"SCALAR"
		},
		{
			"bufferView":40,
			"componentType":5126,
			"count":741,
			"max":[
				4.730629920959473,
				-0.5191929936408997,
				-0.699999988079071
			],
			"min":[
				0.20000000298023224,
				-1.6777000427246094,
				-2.799999952316284
			],
			"type":"VEC3"
		},
		{
			"bufferView":41,
			"componentType":5126,
			"count":741,
			"type":"VEC3"
		},
		{
			"bufferView":42,
			"componentType":5126,
			"count":741,
			"type":"VEC2"
		},
		{
			"bufferView":43,
			"componentType":5123,
			"count":1152,
			"type":"SCALAR"
		},
		{
			"bufferView":44,
			"componentType":5126,
			"count":16904,
			"max":[
				3.171649932861328,
				-2.7523701190948486,
				-0.30000001192092896
			],
			"min":[
				0.5889890193939209,
				-5.253970146179199,
				-1.2862600088119507
			],
			"type":"VEC3"
		},
		{
			"bufferView":45,
			"componentType":5126,
			"count":16904,
			"type":"VEC3"
		},
		{
			"bufferView":46,
			"componentType":5126,
			"count":16904,
			"type":"VEC2"
		},
		{
			"bufferView":47,
			"componentType":5123,
			"count":33084,
			"type":"SCALAR"
		},
		{
			"bufferView":48,
			"componentType":5126,
			"count":5514,
			"max":[
				3.1919100284576416,
				-2.7441999912261963,
				-0.30000001192092896
			],
			"min":[
				0.5897949934005737,
				-5.109620094299316,
				-0.9025710225105286
			],
			"type":"VEC3"
		},
		{
			"bufferView":49,
			"componentType":5126,
			"count":5514,
			"type":"VEC3"
		},
		{
			"bufferView":50,
			"componentType":5126,
			"count":5514,
			"type":"VEC2"
		},
		{
			"bufferView":51,
			"componentType":5123,
			"count":10242,
			"type":"SCALAR"
		},
		{
			"bufferView":52,
			"componentType":5126,
			"count":788,
			"max":[
				2.805730104446411,
				-3.372070074081421,
				-0.30000001192092896
			],
			"min":[
				0.8252750039100647,
				-5.275279998779297,
				-0.3658429980278015
			],
			"type":"VEC3"
		},
		{
			"bufferView":53,
			"componentType":5126,
			"count":788,
			"type":"VEC3"
		},
		{
			"bufferView":54,
			"componentType":5126,
			"count":788,
			"type":"VEC2"
		},
		{
			"bufferView":55,
			"componentType":5123,
			"count":1458,
			"type":"SCALAR"
		},
		{
			"bufferView":56,
			"componentType":5126,
			"count":3293,
			"max":[
				3.151710033416748,
				-2.7677199840545654,
				-0.6543859839439392
			],
			"min":[
				0.6507329940795898,
				-5.153059959411621,
				-0.7386389970779419
			],
			"type":"VEC3"
		},
		{
			"bufferView":57,
			"componentType":5126,
			"count":3293,
			"type":"VEC3"
		},
		{
			"bufferView":58,
			"componentType":5126,
			"count":3293,
			"type":"VEC2"
		},
		{
			"bufferView":59,
			"componentType":5123,
			"count":6642,
			"type":"SCALAR"
		},
		{
			"bufferView":60,
			"componentType":5126,
			"count":753,
			"max":[
				3.0290000438690186,
				-3.1457200050354004,
				-0.7346010208129883
			],
			"min":[
				0.6493669748306274,
				-5.226069927215576,
				-1.28725004196167
			],
			"type":"VEC3"
		},
		{
			"bufferView":61,
			"componentType":5126,
			"count":753,
			"type":"VEC3"
		},
		{
			"bufferView":62,
			"componentType":5126,
			"count":753,
			"type":"VEC2"
		},
		{
			"bufferView":63,
			"componentType":5123,
			"count":1161,
			"type":"SCALAR"
		}
	],
	"bufferViews":[
		{
			"buffer":0,
			"byteLength":3744,
			"byteOffset":0,
			"target":34962
		},
		{
			"buffer":0,
			"byteLength":3744,
			"byteOffset":3744,
			"target":34962
		},
		{
			"buffer":0,
			"byteLength":2496,
			"byteOffset":7488,
			"target":34962
		},
		{
			"buffer":0,
			"byteLength":936,
			"byteOffset":9984,
			"target":34963
		},
		{
			"buffer":0,
			"byteLength":1728,
			"byteOffset":10920,
			"target":34962
		},
		{
			"buffer":0,
			"byteLength":1728,
			"byteOffset":12648,
			"target":34962
		},
		{
			"buffer":0,
			"byteLength":1152,
			"byteOffset":14376,
			"target":34962
		},
		{
			"buffer":0,
			"byteLength":432,
			"byteOffset":15528,
			"target":34963
		},
		{
			"buffer":0,
			"byteLength":1152,
			"byteOffset":15960,
			"target":34962
		},
		{
			"buffer":0,
			"byteLength":1152,
			"byteOffset":17112,
			"target":34962
		},
		{
			"buffer":0,
			"byteLength":768,
			"byteOffset":18264,
			"target":34962
		},
		{
			"buffer":0,
			"byteLength":288,
			"byteOffset":19032,
			"target":34963
		},
		{
			"buffer":0,
			"byteLength":1728,
			"byteOffset":19320,
			"target":34962
		},
		{
			"buffer":0,
			"byteLength":1728,
			"byteOffset":21048,
			"target":34962
		},
		{
			"buffer":0,
			"byteLength":1152,
			"byteOffset":22776,
			"target":34962
		},
		{
			"buffer":0,
			"byteLength":504,
			"byteOffset":23928,
			"target":34963
		},
		{
			"buffer":0,
			"byteLength":175392,
			"byteOffset":24432,
			"target":34962
		},
		{
			"buffer":0,
			"byteLength":175392,
			"byteOffset":199824,
			"target":34962
		},
		{
			"buffer":0,
			"byteLength":116928,
			"byteOffset":375216,
			"target":34962
		},
		{
			"buffer":0,
			"byteLength":60372,
			"byteOffset":492144,
			"target":34963
		},
		{
			"buffer":0,
			"byteLength":448512,
			"byteOffset":552516,
			"target":34962
		},
		{
			"buffer":0,
			"byteLength":448512,
			"byteOffset":1001028,
			"target":34962
		},
		{
			"buffer":0,
			"byteLength":299008,
			"byteOffset":1449540,
			"target":34962
		},
		{
			"buffer":0,
			"byteLength":139320,
			"byteOffset":1748548,
			"target":34963
		},
		{
			"buffer":0,
			"byteLength":67428,
			"byteOffset":1887868,
			"target":34962
		},
		{
			"buffer":0,
			"byteLength":67428,
			"byteOffset":1955296,
			"target":34962
		},
		{
			"buffer":0,
			"byteLength":44952,
			"byteOffset":2022724,
			"target":34962
		},
		{
			"buffer":0,
			"byteLength":19602,
			"byteOffset":2067676,
			"target":34963
		},
		{
			"buffer":0,
			"byteLength":1944,
			"byteOffset":2087280,
			"target":34962
		},
		{
			"buffer":0,
			"byteLength":1944,
			"byteOffset":2089224,
			"target":34962
		},
		{
			"buffer":0,
			"byteLength":1296,
			"byteOffset":2091168,
			"target":34962
		},
		{
			"buffer":0,
			"byteLength":648,
			"byteOffset":2092464,
			"target":34963
		},
		{
			"buffer":0,
			"byteLength":324,
			"byteOffset":2093112,
			"target":34962
		},
		{
			"buffer":0,
			"byteLength":324,
			"byteOffset":2093436,
			"target":34962
		},
		{
			"buffer":0,
			"byteLength":216,
			"byteOffset":2093760,
			"target":34962
		},
		{
			"buffer":0,
			"byteLength":54,
			"byteOffset":2093976,
			"target":34963
		},
		{
			"buffer":0,
			"byteLength":13824,
			"byteOffset":2094032,
			"target":34962
		},
		{
			"buffer":0,
			"byteLength":13824,
			"byteOffset":2107856,
			"target":34962
		},
		{
			"buffer":0,
			"byteLength":9216,
			"byteOffset":2121680,
			"target":34962
		},
		{
			"buffer":0,
			"byteLength":4416,
			"byteOffset":2130896,
			"target":34963
		},
		{
			"buffer":0,
			"byteLength":8892,
			"byteOffset":2135312,
			"target":34962
		},
		{
			"buffer":0,
			"byteLength":8892,
			"byteOffset":2144204,
			"target":34962
		},
		{
			"buffer":0,
			"byteLength":5928,
			"byteOffset":2153096,
			"target":34962
		},
		{
			"buffer":0,
			"byteLength":2304,
			"byteOffset":2159024,
			"target":34963
		},
		{
			"buffer":0,
			"byteLength":202848,
			"byteOffset":2161328,
			"target":34962
		},
		{
			"buffer":0,
			"byteLength":202848,
			"byteOffset":2364176,
			"target":34962
		},
		{
			"buffer":0,
			"byteLength":135232,
			"byteOffset":2567024,
			"target":34962
		},
		{
			"buffer":0,
			"byteLength":66168,
			"byteOffset":2702256,
			"target":34963
		},
		{
			"buffer":0,
			"byteLength":66168,
			"byteOffset":2768424,
			"target":34962
		},
		{
			"buffer":0,
			"byteLength":66168,
			"byteOffset":2834592,
			"target":34962
		},
		{
			"buffer":0,
			"byteLength":44112,
			"byteOffset":2900760,
			"target":34962
		},
		{
			"buffer":0,
			"byteLength":20484,
			"byteOffset":2944872,
			"target":34963
		},
		{
			"buffer":0,
			"byteLength":9456,
			"byteOffset":2965356,
			"target":34962
		},
		{
			"buffer":0,
			"byteLength":9456,
			"byteOffset":2974812,
			"target":34962
		},
		{
			"buffer":0,
			"byteLength":6304,
			"byteOffset":2984268,
			"target":34962
		},
		{
			"buffer":0,
			"byteLength":2916,
			"byteOffset":2990572,
			"target":34963
		},
		{
			"buffer":0,
			"byteLength":39516,
			"byteOffset":2993488,
			"target":34962
		},
		{
			"buffer":0,
			"byteLength":39516,
			"byteOffset":3033004,
			"target":34962
		},
		{
			"buffer":0,
			"byteLength":26344,
			"byteOffset":3072520,
			"target":34962
		},
		{
			"buffer":0,
			"byteLength":13284,
			"byteOffset":3098864,
			"target":34963
		},
		{
			"buffer":0,
			"byteLength":9036,
			"byteOffset":3112148,
			"target":34962
		},
		{
			"buffer":0,
			"byteLength":9036,
			"byteOffset":3121184,
			"target":34962
		},
		{
			"buffer":0,
			"byteLength":6024,
			"byteOffset":3130220,
			"target":34962
		},
		{
			"buffer":0,
			"byteLength":2322,
			"byteOffset":3136244,
			"target":34963
		}
	],
	"samplers":[
		{
			"magFilter":9729,
			"minFilter":9987
		}
	],
	"buffers":[
		{
			"byteLength":3138568,
			"uri":"3D%20room.bin"
		}
	]
}
